<?xml version="1.0" encoding="UTF-8"?>
<svg version="1.1" xmlns="http://www.w3.org/2000/svg" width="321" height="92">
<path d="M0 0 C105.93 0 211.86 0 321 0 C321 30.36 321 60.72 321 92 C215.07 92 109.14 92 0 92 C0 61.64 0 31.28 0 0 Z " fill="#171715" transform="translate(0,0)"/>
<path d="M0 0 C14.906086 -0.05381371 29.79052107 -0.04654261 44.6875 0.5 C46.10610547 0.5485969 47.52472544 0.59677236 48.94335938 0.64453125 C52.29575139 0.75825211 55.64792089 0.87735898 59 1 C60.1577506 4.47325181 60.06866652 7.36067448 60 11 C58.54293274 11.50367757 57.08429904 12.00282556 55.625 12.5 C54.81289062 12.7784375 54.00078125 13.056875 53.1640625 13.34375 C51 14 51 14 49 14 C49.24447876 15.42711304 49.24447876 15.42711304 49.49389648 16.88305664 C50.15673272 21.54746247 50.12516068 26.16788987 50.09765625 30.87109375 C50.0962413 31.793423 50.09482635 32.71575226 50.09336853 33.66603088 C50.08780506 36.58988798 50.07525942 39.51366635 50.0625 42.4375 C50.05748028 44.42903535 50.0529182 46.4205719 50.04882812 48.41210938 C50.03784762 53.27476956 50.02060839 58.13737147 50 63 C46.04 63 42.08 63 38 63 C37.67 47.49 37.34 31.98 37 16 C35.02 15.34 33.04 14.68 31 14 C31 12.35 31 10.7 31 9 C30.34 9 29.68 9 29 9 C29.020625 9.969375 29.04125 10.93875 29.0625 11.9375 C29 15 29 15 28 16 C25.30345146 16.07319621 22.63308542 16.09242537 19.9375 16.0625 C19.17888672 16.05798828 18.42027344 16.05347656 17.63867188 16.04882812 C15.75908129 16.0370068 13.87953101 16.01907078 12 16 C12.33 18.64 12.66 21.28 13 24 C17.29 24.33 21.58 24.66 26 25 C26 26.98 26 28.96 26 31 C25 32 25 32 22.05859375 32.09765625 C18.70572917 32.06510417 15.35286458 32.03255208 12 32 C12.33 37.94 12.66 43.88 13 50 C19.93 50.495 19.93 50.495 27 51 C27 54.96 27 58.92 27 63 C22.68745917 63.02682299 18.37508293 63.04675244 14.0625 63.0625 C12.83080078 63.07087891 11.59910156 63.07925781 10.33007812 63.08789062 C9.16025391 63.09111328 7.99042969 63.09433594 6.78515625 63.09765625 C5.15912476 63.10551147 5.15912476 63.10551147 3.50024414 63.11352539 C1 63 1 63 0 62 C-0.09396057 60.06693502 -0.11743517 58.13041162 -0.11352539 56.19506836 C-0.11344986 54.95385727 -0.11337433 53.71264618 -0.11329651 52.43382263 C-0.10818911 51.0691626 -0.1029731 49.70450298 -0.09765625 48.33984375 C-0.095792 46.95121817 -0.09436813 45.56259193 -0.09336853 44.17396545 C-0.08954387 40.51278885 -0.07971403 36.8516517 -0.06866455 33.19049072 C-0.05844932 29.45707737 -0.05387067 25.72365766 -0.04882812 21.99023438 C-0.03809171 14.66013823 -0.02101591 7.33007464 0 0 Z " fill="#F2DA84" transform="translate(58,16)"/>
<path d="M0 0 C1.28132813 0.00902344 2.56265625 0.01804687 3.8828125 0.02734375 C4.87023438 0.03894531 5.85765625 0.05054688 6.875 0.0625 C9.03050707 4.58181943 9.49749591 8.961169 10 13.875 C10.08636719 14.66326172 10.17273438 15.45152344 10.26171875 16.26367188 C10.47251064 18.19593084 10.67462896 20.12913263 10.875 22.0625 C11.535 22.0625 12.195 22.0625 12.875 22.0625 C12.92398438 21.38445313 12.97296875 20.70640625 13.0234375 20.0078125 C14.42921687 2.50828313 14.42921687 2.50828313 16.875 0.0625 C18.64247729 -0.06312235 20.41560292 -0.11326558 22.1875 -0.125 C23.63576172 -0.14626953 23.63576172 -0.14626953 25.11328125 -0.16796875 C28.04336833 0.07655054 29.4909884 0.36278515 31.875 2.0625 C32.47998047 4.46557617 32.47998047 4.46557617 32.6171875 7.66796875 C32.67229492 8.92915527 32.72740234 10.1903418 32.78417969 11.48974609 C32.98296194 20.04049634 33.02237324 28.59155528 33.00537109 37.14428711 C32.99993634 40.41329425 33.00538394 43.6821685 33.01171875 46.95117188 C33.01105922 49.02604197 33.00978066 51.10091198 33.0078125 53.17578125 C33.00983673 54.15476883 33.01186096 55.13375641 33.01394653 56.14241028 C33.00921829 57.48597847 33.00921829 57.48597847 33.00439453 58.85668945 C33.00359894 59.64719193 33.00280334 60.4376944 33.00198364 61.25215149 C32.875 63.0625 32.875 63.0625 31.875 64.0625 C28.4375 64.25 28.4375 64.25 24.875 64.0625 C22.24134815 61.42884815 22.49670962 59.96397983 22.2421875 56.28515625 C22.11650391 54.55555664 22.11650391 54.55555664 21.98828125 52.79101562 C21.90964844 51.58123047 21.83101562 50.37144531 21.75 49.125 C21.66363281 47.91908203 21.57726562 46.71316406 21.48828125 45.47070312 C20.875 36.75334821 20.875 36.75334821 20.875 33.0625 C20.215 33.0625 19.555 33.0625 18.875 33.0625 C18.82601562 33.64773437 18.77703125 34.23296875 18.7265625 34.8359375 C18.17868737 41.1270554 17.54610536 47.40849384 16.875 53.6875 C16.7920166 54.49364746 16.7090332 55.29979492 16.62353516 56.13037109 C15.99050991 61.94699009 15.99050991 61.94699009 14.875 63.0625 C11.375 63.1875 11.375 63.1875 7.875 63.0625 C5.82577589 61.01327589 6.18991469 57.01681164 5.875 54.1875 C5.27087242 48.54839133 5.27087242 48.54839133 3.875 43.0625 C3.65320215 41.17037263 3.46885985 39.27365528 3.3125 37.375 C3.22871094 36.38113281 3.14492188 35.38726562 3.05859375 34.36328125 C2.99800781 33.60402344 2.93742187 32.84476563 2.875 32.0625 C1.885 31.7325 0.895 31.4025 -0.125 31.0625 C-0.15005615 32.02663818 -0.1751123 32.99077637 -0.20092773 33.98413086 C-0.29485306 37.54937842 -0.39510939 41.11442433 -0.49731445 44.67944336 C-0.54071985 46.22464289 -0.58239071 47.76989214 -0.62231445 49.31518555 C-0.67988199 51.53189096 -0.74361424 53.7483448 -0.80859375 55.96484375 C-0.83366249 57.00704323 -0.83366249 57.00704323 -0.85923767 58.07029724 C-1.01112829 62.94862829 -1.01112829 62.94862829 -2.125 64.0625 C-5.125 64.1875 -5.125 64.1875 -8.125 64.0625 C-9.125 63.0625 -9.125 63.0625 -9.24525452 60.58848572 C-9.24303391 59.48928299 -9.24081329 58.39008026 -9.23852539 57.25756836 C-9.23844986 56.01635727 -9.23837433 54.77514618 -9.23829651 53.49632263 C-9.23318911 52.1316626 -9.2279731 50.76700298 -9.22265625 49.40234375 C-9.220792 48.01371817 -9.21936813 46.62509193 -9.21836853 45.23646545 C-9.21454387 41.57528885 -9.20471403 37.9141517 -9.19366455 34.25299072 C-9.18344932 30.51957737 -9.17887067 26.78615766 -9.17382812 23.05273438 C-9.16309171 15.72263823 -9.14601591 8.39257464 -9.125 1.0625 C-6.12186252 -0.43906874 -3.33432478 -0.03031204 0 0 Z " fill="#F0D983" transform="translate(21.125,15.9375)"/>
<path d="M0 0 C0.95793457 0.00708984 1.91586914 0.01417969 2.90283203 0.02148438 C3.95341797 0.0240625 5.00400391 0.02664063 6.08642578 0.02929688 C7.18341797 0.05765625 8.28041016 0.08601562 9.41064453 0.11523438 C11.04453125 0.11136719 11.04453125 0.11136719 12.71142578 0.10742188 C18.2775284 0.17555043 21.89625073 0.26609831 26.53564453 3.61523438 C27.77571513 6.09537557 27.66921342 7.76208783 27.6809082 10.53637695 C27.68728806 11.56116653 27.69366791 12.58595612 27.70024109 13.64179993 C27.70135391 14.75322861 27.70246674 15.86465729 27.70361328 17.00976562 C27.70860588 18.71902473 27.70860588 18.71902473 27.71369934 20.46281433 C27.71877002 22.87795609 27.72110762 25.29310488 27.72094727 27.70825195 C27.72312931 31.40197339 27.74127156 35.09539413 27.76025391 38.7890625 C27.76318868 41.13346252 27.76517291 43.47786396 27.76611328 45.82226562 C27.7732988 46.92762161 27.78048431 48.0329776 27.78788757 49.17182922 C27.78481094 50.20607529 27.78173431 51.24032135 27.77856445 52.3059082 C27.77998947 53.21254715 27.78141449 54.1191861 27.78288269 55.05329895 C27.50403717 57.94275674 26.85619438 60.03211036 25.53564453 62.61523438 C20.87476441 65.72248779 16.08160253 65.02385718 10.59814453 65.05273438 C9.50050781 65.08560547 8.40287109 65.11847656 7.27197266 65.15234375 C6.21558594 65.15943359 5.15919922 65.16652344 4.07080078 65.17382812 C3.10537354 65.18728271 2.13994629 65.2007373 1.14526367 65.21459961 C-1.46435547 64.61523438 -1.46435547 64.61523438 -3.77929688 62.83813477 C-6.39022024 57.84439391 -6.01518315 53.04301703 -5.96044922 47.49023438 C-5.96190445 46.31058105 -5.96335968 45.13092773 -5.96485901 43.91552734 C-5.96320074 41.42412849 -5.95164771 38.93271933 -5.9309082 36.44140625 C-5.90196086 32.62911439 -5.91030069 28.81821381 -5.92333984 25.00585938 C-5.91710211 22.58397762 -5.90871091 20.16210025 -5.89794922 17.74023438 C-5.90088486 16.60054199 -5.9038205 15.46084961 -5.90684509 14.28662109 C-5.89416092 13.2220166 -5.88147675 12.15741211 -5.8684082 11.06054688 C-5.86300522 10.12742676 -5.85760223 9.19430664 -5.85203552 8.23291016 C-5.26042458 4.23826145 -4.10134576 1.02391434 0 0 Z " fill="#EFD883" transform="translate(163.46435546875,15.384765625)"/>
<path d="M0 0 C2.87633817 -0.02033946 5.7525306 -0.03517279 8.62890625 -0.046875 C9.84205505 -0.05630127 9.84205505 -0.05630127 11.07971191 -0.06591797 C25.7140296 -0.11052346 25.7140296 -0.11052346 29.73046875 3.59765625 C31.48896191 6.92526639 31.44667053 10.01523848 31.375 13.6875 C31.36919922 14.39777344 31.36339844 15.10804687 31.35742188 15.83984375 C31.22107741 21.37441888 30.19293522 25.88315116 28 31 C28.48823242 31.36407959 28.97646484 31.72815918 29.47949219 32.10327148 C31.67330938 34.83990697 31.35647775 36.87517819 31.328125 40.34765625 C31.32296875 41.59224609 31.3178125 42.83683594 31.3125 44.11914062 C31.291875 45.42044922 31.27125 46.72175781 31.25 48.0625 C31.24484375 49.36767578 31.2396875 50.67285156 31.234375 52.01757812 C31.15413317 61.69173366 31.15413317 61.69173366 30 64 C25.38820072 64.18085487 22.20961305 63.84670417 18 62 C17.98018066 61.31897217 17.96036133 60.63794434 17.93994141 59.9362793 C17.84473017 56.85296083 17.73503534 53.77032351 17.625 50.6875 C17.5940625 49.61564453 17.563125 48.54378906 17.53125 47.43945312 C17.49257812 46.41142578 17.45390625 45.38339844 17.4140625 44.32421875 C17.36693115 42.9024231 17.36693115 42.9024231 17.31884766 41.4519043 C17.1510949 38.7469731 17.1510949 38.7469731 15 36 C14.34 36 13.68 36 13 36 C12.97494385 36.78238037 12.9498877 37.56476074 12.92407227 38.37084961 C12.80850212 41.89324949 12.68560051 45.4153556 12.5625 48.9375 C12.52318359 50.16919922 12.48386719 51.40089844 12.44335938 52.66992188 C12.40146484 53.83974609 12.35957031 55.00957031 12.31640625 56.21484375 C12.26141968 57.84087524 12.26141968 57.84087524 12.20532227 59.49975586 C12 62 12 62 11 63 C9.16884117 63.09851171 7.33380067 63.12972629 5.5 63.125 C4.4996875 63.12757812 3.499375 63.13015625 2.46875 63.1328125 C0 63 0 63 -1 62 C-1.10081278 60.58101261 -1.1308233 59.15693764 -1.1328125 57.734375 C-1.13474609 56.79843506 -1.13667969 55.86249512 -1.13867188 54.89819336 C-1.13416016 53.85928955 -1.12964844 52.82038574 -1.125 51.75 C-1.12306641 50.67564697 -1.12113281 49.60129395 -1.11914062 48.49438477 C-1.03807528 32.32522701 -0.49454243 16.16075231 0 0 Z " fill="#F3DB85" transform="translate(122,16)"/>
<path d="M0 0 C4.29 0 8.58 0 13 0 C16.04166807 6.39863101 17.72928291 13.03183568 19.5 19.875 C20.09110645 22.14391952 20.68480992 24.41216421 21.28125 26.6796875 C21.53970703 27.67726074 21.79816406 28.67483398 22.06445312 29.70263672 C23.23921722 33.84312833 24.63898048 37.91694143 26 42 C26 28.8 26 15.6 26 2 C27.98 2 29.96 2 32 2 C32.04629055 9.7884635 32.08185242 17.57689492 32.10362434 25.36546135 C32.11407249 28.98180873 32.12825032 32.59806216 32.15087891 36.21435547 C32.1725708 39.70268811 32.18456085 43.19093024 32.18975449 46.6793251 C32.19526169 48.66139971 32.21088034 50.64343779 32.22659302 52.62545776 C32.22681961 54.42709885 32.22681961 54.42709885 32.22705078 56.26513672 C32.231492 57.32658905 32.23593323 58.38804138 32.24050903 59.48165894 C32 62 32 62 30 64 C27.6875 64.265625 27.6875 64.265625 25 64.25 C23.6696875 64.25773437 23.6696875 64.25773437 22.3125 64.265625 C20 64 20 64 18 62 C17.32983398 60.16821289 17.32983398 60.16821289 16.74609375 57.97265625 C16.53146484 57.18052734 16.31683594 56.38839844 16.09570312 55.57226562 C15.87849609 54.74404297 15.66128906 53.91582031 15.4375 53.0625 C14.99922785 51.42824321 14.56044628 49.79412292 14.12109375 48.16015625 C13.9295874 47.43449463 13.73808105 46.70883301 13.54077148 45.96118164 C13.08047041 44.29183692 12.54759373 42.64278118 12 41 C11.67 48.59 11.34 56.18 11 64 C7.7 64 4.4 64 1 64 C-1 62 -1 62 -1.20254517 59.4057312 C-1.18033905 58.30874908 -1.15813293 57.21176697 -1.13525391 56.08154297 C-1.11508209 54.84040741 -1.09491028 53.59927185 -1.0741272 52.32052612 C-1.04182178 50.96107476 -1.00929496 49.60162865 -0.9765625 48.2421875 C-0.95039885 46.85500705 -0.92513156 45.46780942 -0.90072632 44.08059692 C-0.83404087 40.42745249 -0.7551561 36.77466866 -0.67376709 33.12182617 C-0.59288026 29.39516046 -0.52347954 25.66828304 -0.453125 21.94140625 C-0.31335278 14.62733901 -0.15963742 7.31366557 0 0 Z " fill="#F4DC85" transform="translate(197,16)"/>
<path d="M0 0 C3.63 0 7.26 0 11 0 C11.83679277 2.62394306 12.66956942 5.24904384 13.5 7.875 C13.73847656 8.62136719 13.97695313 9.36773437 14.22265625 10.13671875 C16 15.7734375 16 15.7734375 16 18 C16.66 18 17.32 18 18 18 C18.13277344 17.03578125 18.26554687 16.0715625 18.40234375 15.078125 C18.57894531 13.81484375 18.75554687 12.5515625 18.9375 11.25 C19.11152344 9.99703125 19.28554688 8.7440625 19.46484375 7.453125 C20 4 20 4 21 0 C25.62 0 30.24 0 35 0 C34.566875 1.85625 34.566875 1.85625 34.125 3.75 C33.04048397 8.56922264 32.27787553 13.41451092 31.5625 18.30078125 C31 21 31 21 29.94921875 23.03125 C28.74467443 25.52956415 28.76766486 27.42810094 28.8125 30.1875 C28.81894531 31.06792969 28.82539063 31.94835937 28.83203125 32.85546875 C28.76489536 34.98147312 28.76489536 34.98147312 30 36 C30.79397294 39.5479248 31.48398367 43.11204237 32.18359375 46.6796875 C32.82737715 50.10938501 32.82737715 50.10938501 35 53 C35.2610788 56.02329256 35.08815181 58.95876242 35 62 C31.37 62 27.74 62 24 62 C20.85543483 54.85326097 19.92164422 47.72012568 19 40 C18.34 40 17.68 40 17 40 C16.97494385 40.63091553 16.9498877 41.26183105 16.92407227 41.91186523 C16.80845863 44.75396825 16.68557684 47.59571083 16.5625 50.4375 C16.52318359 51.43072266 16.48386719 52.42394531 16.44335938 53.44726562 C16.40146484 54.39150391 16.35957031 55.33574219 16.31640625 56.30859375 C16.27974854 57.18314209 16.24309082 58.05769043 16.20532227 58.95874023 C16 61 16 61 15 62 C12.30345146 62.07319621 9.63308542 62.09242537 6.9375 62.0625 C5.79958008 62.05573242 5.79958008 62.05573242 4.63867188 62.04882812 C2.75908129 62.0370068 0.87953101 62.01907078 -1 62 C-0.295668 54.11471995 1.38122493 46.67169272 3.27148438 38.99609375 C5.37757016 30.1419372 5.16872055 23.58559713 2.5 14.9375 C0.93089147 9.82729521 -0.346799 5.41873439 0 0 Z " fill="#F0D883" transform="translate(273,17)"/>
<path d="M0 0 C4.29 0 8.58 0 13 0 C13.12117187 1.25296875 13.24234375 2.5059375 13.3671875 3.796875 C13.53604833 5.44795865 13.70534183 7.09899809 13.875 8.75 C13.95363281 9.575 14.03226563 10.4 14.11328125 11.25 C14.19707031 12.04921875 14.28085938 12.8484375 14.3671875 13.671875 C14.44050293 14.4050293 14.51381836 15.13818359 14.58935547 15.89355469 C15.03889753 18.19952905 15.8637373 19.95391841 17 22 C17.05534912 21.40461426 17.11069824 20.80922852 17.16772461 20.19580078 C17.42018865 17.50512785 17.67876816 14.81507714 17.9375 12.125 C18.02451172 11.18785156 18.11152344 10.25070313 18.20117188 9.28515625 C18.28818359 8.38925781 18.37519531 7.49335938 18.46484375 6.5703125 C18.543396 5.74289551 18.62194824 4.91547852 18.70288086 4.06298828 C19 2 19 2 20 0 C25.28 0 30.56 0 36 0 C35.25860638 5.18975533 34.63609949 8.46684804 32.75 13.1171875 C32.3065625 14.21804687 31.863125 15.31890625 31.40625 16.453125 C30.71015625 18.14695312 30.71015625 18.14695312 30 19.875 C29.5359375 21.02742188 29.071875 22.17984375 28.59375 23.3671875 C25.15438988 31.84561012 25.15438988 31.84561012 24 33 C23.84141158 35.14386657 23.74870702 37.29266838 23.68359375 39.44140625 C23.64169922 40.74658203 23.59980469 42.05175781 23.55664062 43.39648438 C23.51682392 44.7851533 23.47711175 46.17382522 23.4375 47.5625 C23.39432011 48.95509183 23.350706 50.34767028 23.30664062 51.74023438 C23.20014124 55.16004801 23.09813077 58.57993763 23 62 C20.52076199 62.02685095 18.0418116 62.04676547 15.5625 62.0625 C14.85544922 62.07087891 14.14839844 62.07925781 13.41992188 62.08789062 C11.61306441 62.09653588 9.80612397 62.05220011 8 62 C7 61 7 61 6.96582031 58.32641602 C7.00288086 57.14748779 7.03994141 55.96855957 7.078125 54.75390625 C7.44524602 38.33183247 6.68870865 24.44553201 0.8359375 8.91015625 C0 6 0 6 0 0 Z " fill="#F1DA84" transform="translate(234,17)"/>
<path d="M0 0 C1.47906892 -0.02689216 2.95827483 -0.04634621 4.4375 -0.0625 C5.26121094 -0.07410156 6.08492187 -0.08570313 6.93359375 -0.09765625 C9 0 9 0 10 1 C10.09956876 2.45821272 10.1308044 3.92120576 10.1328125 5.3828125 C10.13571289 6.75348877 10.13571289 6.75348877 10.13867188 8.15185547 C10.13416016 9.13299316 10.12964844 10.11413086 10.125 11.125 C10.12306641 12.11516113 10.12113281 13.10532227 10.11914062 14.12548828 C10.07254178 22.11848415 9.69453693 30.03763019 9 38 C5.52674819 39.1577506 2.63932552 39.06866652 -1 39 C-1.02467917 33.76725612 -1.04285003 28.53454597 -1.05493164 23.30175781 C-1.05996711 21.52082733 -1.06679581 19.739901 -1.07543945 17.95898438 C-1.08753942 15.40233335 -1.09323609 12.84573688 -1.09765625 10.2890625 C-1.10281754 9.49005524 -1.10797882 8.69104797 -1.11329651 7.86782837 C-1.11387171 2.22774341 -1.11387171 2.22774341 0 0 Z " fill="#191815" transform="translate(168,33)"/>
<path d="M0 0 C1.62418745 -0.08090971 3.24951745 -0.13914995 4.875 -0.1875 C5.77992188 -0.22230469 6.68484375 -0.25710937 7.6171875 -0.29296875 C8.79667969 -0.14794922 8.79667969 -0.14794922 10 0 C11.99825961 2.99738941 12.27550398 3.63347508 12.25 7 C12.25515625 7.680625 12.2603125 8.36125 12.265625 9.0625 C12 11 12 11 10 14 C7.87109375 14.328125 7.87109375 14.328125 5.4375 14.25 C4.63183594 14.23453125 3.82617188 14.2190625 2.99609375 14.203125 C1 14 1 14 0 13 C-0.07258946 10.81360547 -0.08373783 8.62499611 -0.0625 6.4375 C-0.05347656 5.23996094 -0.04445313 4.04242188 -0.03515625 2.80859375 C-0.02355469 1.88175781 -0.01195313 0.95492188 0 0 Z " fill="#2A281E" transform="translate(128,27)"/>
<path d="M0 0 C1.98 0 3.96 0 6 0 C6 0.33 6 0.66 6 1 C4.35 1 2.7 1 1 1 C1.33 14.86 1.66 28.72 2 43 C-1 40 -1 40 -1.32279968 38.12068176 C-1.29837296 37.41674789 -1.27394623 36.71281403 -1.2487793 35.98754883 C-1.22853195 35.18694534 -1.20828461 34.38634186 -1.18742371 33.56147766 C-1.15006607 32.70201035 -1.11270844 31.84254303 -1.07421875 30.95703125 C-1.04777786 30.0734343 -1.02133698 29.18983734 -0.99409485 28.27946472 C-0.90630236 25.45645802 -0.7971642 22.63473351 -0.6875 19.8125 C-0.62424424 17.89913453 -0.56237808 15.98572258 -0.50195312 14.07226562 C-0.35075675 9.38081882 -0.18041256 4.69041048 0 0 Z " fill="#7B7048" transform="translate(222,17)"/>
<path d="M0 0 C4.95 0 9.9 0 15 0 C15 0.33 15 0.66 15 1 C10.71 1 6.42 1 2 1 C2 2.98 2 4.96 2 7 C5.63 7 9.26 7 13 7 C13 7.66 13 8.32 13 9 C11.02090602 9.02686553 9.04171029 9.04633375 7.0625 9.0625 C5.96035156 9.07410156 4.85820313 9.08570313 3.72265625 9.09765625 C1 9 1 9 0 8 C-0.14115161 5.32941149 -0.04247107 2.67567762 0 0 Z " fill="#5D5538" transform="translate(70,32)"/>
<path d="M0 0 C1.9451 2.91765 2.45276317 4.62537285 3 8 C2.34 8 1.68 8 1 8 C1 13.61 1 19.22 1 25 C0.67 25 0.34 25 0 25 C0 16.75 0 8.5 0 0 Z " fill="#6C6341" transform="translate(208,54)"/>
<path d="M0 0 C0.99 0.33 1.98 0.66 3 1 C2.34 1.66 1.68 2.32 1 3 C0.62864085 5.52037964 0.62864085 5.52037964 0.5859375 8.4453125 C0.54726562 9.52167969 0.50859375 10.59804688 0.46875 11.70703125 C0.4378125 12.83496094 0.406875 13.96289062 0.375 15.125 C0.33632812 16.26066406 0.29765625 17.39632812 0.2578125 18.56640625 C0.16332399 21.37743956 0.07776459 24.18846233 0 27 C-0.33 27 -0.66 27 -1 27 C-1.02886537 22.68751391 -1.04675255 18.37505238 -1.0625 14.0625 C-1.07087891 12.83080078 -1.07925781 11.59910156 -1.08789062 10.33007812 C-1.09111328 9.16025391 -1.09433594 7.99042969 -1.09765625 6.78515625 C-1.10289307 5.70113525 -1.10812988 4.61711426 -1.11352539 3.50024414 C-1 1 -1 1 0 0 Z " fill="#5B5338" transform="translate(135,51)"/>
<path d="M0 0 C1.32 0 2.64 0 4 0 C4 7.26 4 14.52 4 22 C3.67 22 3.34 22 3 22 C2.67 15.4 2.34 8.8 2 2 C1.34 2 0.68 2 0 2 C0 1.34 0 0.68 0 0 Z " fill="#AC9C61" transform="translate(40,47)"/>
<path d="M0 0 C0.99 0 1.98 0 3 0 C3 2.64 3 5.28 3 8 C2.34 8 1.68 8 1 8 C1 9.98 1 11.96 1 14 C0.67 14 0.34 14 0 14 C0 9.38 0 4.76 0 0 Z " fill="#85794E" transform="translate(86,17)"/>
<path d="M0 0 C0.66 0 1.32 0 2 0 C2.33 2.64 2.66 5.28 3 8 C2.34 8 1.68 8 1 8 C0.67 8.66 0.34 9.32 0 10 C0 6.7 0 3.4 0 0 Z " fill="#2F2C21" transform="translate(40,49)"/>
</svg>
