<?xml version="1.0" encoding="UTF-8"?>
<!DOCTYPE svg PUBLIC "-//W3C//DTD SVG 1.1//EN" "http://www.w3.org/Graphics/SVG/1.1/DTD/svg11.dtd">
<svg xmlns="http://www.w3.org/2000/svg" version="1.1" width="316px" height="98px" style="shape-rendering:geometricPrecision; text-rendering:geometricPrecision; image-rendering:optimizeQuality; fill-rule:evenodd; clip-rule:evenodd" xmlns:xlink="http://www.w3.org/1999/xlink">
<g><path style="opacity:1" fill="#141313" d="M -0.5,-0.5 C 104.833,-0.5 210.167,-0.5 315.5,-0.5C 315.5,32.1667 315.5,64.8333 315.5,97.5C 210.167,97.5 104.833,97.5 -0.5,97.5C -0.5,64.8333 -0.5,32.1667 -0.5,-0.5 Z"/></g>
<g><path style="opacity:1" fill="#dadada" d="M 33.5,11.5 C 40.8211,12.3193 42.1545,15.486 37.5,21C 30.075,20.4845 28.7416,17.3178 33.5,11.5 Z"/></g>
<g><path style="opacity:1" fill="#313131" d="M 34.5,13.5 C 37.4872,13.9478 38.4872,15.4478 37.5,18C 32.5219,18.8641 31.5219,17.3641 34.5,13.5 Z"/></g>
<g><path style="opacity:1" fill="#83774c" d="M 110.5,25.5 C 106.865,24.8857 103.198,24.5524 99.5,24.5C 99.1006,28.0109 98.4339,31.3443 97.5,34.5C 97.423,30.7852 97.7564,27.1185 98.5,23.5C 102.817,23.0834 106.817,23.7501 110.5,25.5 Z"/></g>
<g><path style="opacity:1" fill="#6b613f" d="M 285.5,24.5 C 283.167,24.5 280.833,24.5 278.5,24.5C 278.5,25.5 278.5,26.5 278.5,27.5C 277.833,27.1667 277.167,26.8333 276.5,26.5C 276.5,26.1667 276.5,25.8333 276.5,25.5C 279.346,23.3665 282.346,23.0332 285.5,24.5 Z"/></g>
<g><path style="opacity:1" fill="#f5dc86" d="M 92.5,24.5 C 92.3618,29.4141 93.0285,34.0808 94.5,38.5C 94.4614,39.7562 94.9614,40.7562 96,41.5C 96.977,39.26 97.477,36.9267 97.5,34.5C 98.4339,31.3443 99.1006,28.0109 99.5,24.5C 103.198,24.5524 106.865,24.8857 110.5,25.5C 110.5,40.8333 110.5,56.1667 110.5,71.5C 108.5,71.5 106.5,71.5 104.5,71.5C 103.536,64.2537 103.203,56.9204 103.5,49.5C 103.728,47.6453 103.061,46.8119 101.5,47C 100.62,48.3561 100.286,49.8561 100.5,51.5C 99.965,58.1833 99.2983,64.8499 98.5,71.5C 96.5,71.5 94.5,71.5 92.5,71.5C 92.7214,68.7212 92.388,66.0545 91.5,63.5C 91.7625,57.3229 90.4291,51.6562 87.5,46.5C 85.7645,54.731 85.0979,63.0643 85.5,71.5C 84.0813,72.4511 82.4147,72.7845 80.5,72.5C 80.3334,56.4965 80.5001,40.4965 81,24.5C 84.9341,23.179 88.7674,23.179 92.5,24.5 Z"/></g>
<g><path style="opacity:1" fill="#ecd581" d="M 136.5,24.5 C 136.763,28.6002 136.43,32.6002 135.5,36.5C 131.833,36.5 128.167,36.5 124.5,36.5C 124.5,38.5 124.5,40.5 124.5,42.5C 127.833,42.5 131.167,42.5 134.5,42.5C 134.5,44.5 134.5,46.5 134.5,48.5C 131.167,48.5 127.833,48.5 124.5,48.5C 123.837,50.6413 123.503,52.9746 123.5,55.5C 123.529,58.2695 124.195,60.6028 125.5,62.5C 128.833,62.5 132.167,62.5 135.5,62.5C 135.5,65.5 135.5,68.5 135.5,71.5C 128.578,71.8122 121.744,71.4788 115,70.5C 114.333,55.1667 114.333,39.8333 115,24.5C 122.166,23.1833 129.333,23.1833 136.5,24.5 Z"/></g>
<g><path style="opacity:1" fill="#f1d984" d="M 138.5,24.5 C 145.833,24.5 153.167,24.5 160.5,24.5C 160.813,27.2469 160.48,29.9135 159.5,32.5C 157.591,33.3482 155.591,33.6816 153.5,33.5C 152.182,36.2575 151.515,39.4242 151.5,43C 151.502,46.3518 151.835,49.5185 152.5,52.5C 152.5,58.8333 152.5,65.1667 152.5,71.5C 149.5,71.5 146.5,71.5 143.5,71.5C 143.5,59.5 143.5,47.5 143.5,35.5C 141.708,35.634 140.042,35.3007 138.5,34.5C 138.5,31.1667 138.5,27.8333 138.5,24.5 Z"/></g>
<g><path style="opacity:1" fill="#f1d984" d="M 163.5,23.5 C 168.179,23.3342 172.845,23.5008 177.5,24C 180.982,24.4888 184.149,25.6555 187,27.5C 188.264,34.0514 187.431,40.2181 184.5,46C 184.63,47.0588 185.13,47.8921 186,48.5C 186.5,56.4931 186.666,64.4931 186.5,72.5C 183.455,72.4921 180.455,72.1587 177.5,71.5C 177.666,65.1579 177.5,58.8246 177,52.5C 175.89,50.9632 174.39,50.2965 172.5,50.5C 172.5,57.5 172.5,64.5 172.5,71.5C 169.5,71.5 166.5,71.5 163.5,71.5C 162.885,55.5216 162.885,39.5216 163.5,23.5 Z"/></g>
<g><path style="opacity:1" fill="#ead381" d="M 193.5,23.5 C 198.844,23.334 204.177,23.5006 209.5,24C 212.133,24.4232 214.299,25.5899 216,27.5C 216.667,40.5 216.667,53.5 216,66.5C 215.727,68.3289 214.893,69.8289 213.5,71C 206.45,73.041 199.45,72.8744 192.5,70.5C 192.192,69.6919 191.692,69.0253 191,68.5C 190.333,54.5 190.333,40.5 191,26.5C 192.045,25.6266 192.878,24.6266 193.5,23.5 Z"/></g>
<g><path style="opacity:1" fill="#f1d984" d="M 238.5,51.5 C 238.5,52.1667 238.5,52.8333 238.5,53.5C 239.072,55.2554 239.906,56.9221 241,58.5C 241.81,54.6425 241.643,50.9758 240.5,47.5C 240.5,43.8333 240.5,40.1667 240.5,36.5C 240.5,32.8333 240.5,29.1667 240.5,25.5C 241.833,25.5 243.167,25.5 244.5,25.5C 245.661,40.3277 245.828,55.3277 245,70.5C 239.141,74.1344 235.308,72.801 233.5,66.5C 232.486,61.816 231.486,57.1493 230.5,52.5C 230.607,50.6214 230.107,50.2881 229,51.5C 228.5,58.1583 228.334,64.825 228.5,71.5C 226.052,72.4731 223.385,72.8064 220.5,72.5C 220.5,56.1667 220.5,39.8333 220.5,23.5C 224.106,23.2108 227.606,23.5442 231,24.5C 233.662,33.4861 236.162,42.4861 238.5,51.5 Z"/></g>
<g><path style="opacity:1" fill="#f2da85" d="M 259.5,36.5 C 259.5,38.1667 259.5,39.8333 259.5,41.5C 261.179,41.7148 262.179,41.0481 262.5,39.5C 262.916,34.5068 263.249,29.5068 263.5,24.5C 268.032,24.1818 272.366,24.5151 276.5,25.5C 276.5,25.8333 276.5,26.1667 276.5,26.5C 273.346,34.1453 270.179,41.812 267,49.5C 266.5,56.8258 266.334,64.1591 266.5,71.5C 262.5,71.5 258.5,71.5 254.5,71.5C 255.411,63.0008 255.411,54.6675 254.5,46.5C 252.503,39.1703 250.503,31.8369 248.5,24.5C 252.106,24.2108 255.606,24.5442 259,25.5C 259.499,29.1516 259.665,32.8183 259.5,36.5 Z"/></g>
<g><path style="opacity:1" fill="#f4db85" d="M 285.5,24.5 C 287.448,26.3204 288.448,28.6538 288.5,31.5C 288.963,34.4824 289.296,37.4824 289.5,40.5C 290.5,40.5 291.5,40.5 292.5,40.5C 292.5,39.5 292.5,38.5 292.5,37.5C 293.057,32.9484 294.057,28.6151 295.5,24.5C 298.167,24.5 300.833,24.5 303.5,24.5C 303.5,26.8333 303.5,29.1667 303.5,31.5C 300.522,39.6226 299.855,47.956 301.5,56.5C 301.003,61.4127 302.003,65.9127 304.5,70C 301.854,70.4974 299.187,70.6641 296.5,70.5C 293.05,50.2914 291.05,50.6248 290.5,71.5C 286.167,71.5 281.833,71.5 277.5,71.5C 279.574,64.6513 280.907,57.6513 281.5,50.5C 283.983,46.0441 283.65,41.7108 280.5,37.5C 280.5,36.8333 280.5,36.1667 280.5,35.5C 280.59,32.8478 279.924,30.5145 278.5,28.5C 278.5,28.1667 278.5,27.8333 278.5,27.5C 278.5,26.5 278.5,25.5 278.5,24.5C 280.833,24.5 283.167,24.5 285.5,24.5 Z"/></g>
<g><path style="opacity:1" fill="#8f8151" d="M 295.5,24.5 C 298.304,23.3622 301.304,23.1955 304.5,24C 305.378,26.6576 305.044,29.1576 303.5,31.5C 303.5,29.1667 303.5,26.8333 303.5,24.5C 300.833,24.5 298.167,24.5 295.5,24.5 Z"/></g>
<g><path style="opacity:1" fill="#9e8f5a" d="M 244.5,25.5 C 243.167,25.5 241.833,25.5 240.5,25.5C 240.5,29.1667 240.5,32.8333 240.5,36.5C 240.167,36.5 239.833,36.5 239.5,36.5C 239.5,32.5 239.5,28.5 239.5,24.5C 241.415,24.2155 243.081,24.5489 244.5,25.5 Z"/></g>
<g><path style="opacity:1" fill="#4e4830" d="M 136.5,24.5 C 137.167,24.5 137.833,24.5 138.5,24.5C 138.5,27.8333 138.5,31.1667 138.5,34.5C 137.778,35.5511 136.778,36.2178 135.5,36.5C 136.43,32.6002 136.763,28.6002 136.5,24.5 Z"/></g>
<g><path style="opacity:1" fill="#574f35" d="M 278.5,28.5 C 279.924,30.5145 280.59,32.8478 280.5,35.5C 279.076,33.4855 278.41,31.1522 278.5,28.5 Z"/></g>
<g><path style="opacity:1" fill="#1e1c18" d="M 168.5,32.5 C 176.198,31.1933 178.865,34.1933 176.5,41.5C 173.916,42.3928 171.249,42.7261 168.5,42.5C 168.5,39.1667 168.5,35.8333 168.5,32.5 Z"/></g>
<g><path style="opacity:1" fill="#9f905a" d="M 92.5,24.5 C 93.8955,28.5909 94.5621,32.9242 94.5,37.5C 94.5,37.8333 94.5,38.1667 94.5,38.5C 93.0285,34.0808 92.3618,29.4141 92.5,24.5 Z"/></g>
<g><path style="opacity:1" fill="#504931" d="M 97.5,34.5 C 97.477,36.9267 96.977,39.26 96,41.5C 94.9614,40.7562 94.4614,39.7562 94.5,38.5C 94.5,38.1667 94.5,37.8333 94.5,37.5C 95.8999,36.9002 96.8999,35.9002 97.5,34.5 Z"/></g>
<g><path style="opacity:1" fill="#151413" d="M 205.5,37.5 C 205.167,46.8333 204.833,56.1667 204.5,65.5C 202.283,66.3686 199.95,66.702 197.5,66.5C 197.334,57.1607 197.5,47.8274 198,38.5C 200.381,37.565 202.881,37.2317 205.5,37.5 Z"/></g>
<g><path style="opacity:1" fill="#706642" d="M 259.5,36.5 C 260.1,37.9002 261.1,38.9002 262.5,39.5C 262.179,41.0481 261.179,41.7148 259.5,41.5C 259.5,39.8333 259.5,38.1667 259.5,36.5 Z"/></g>
<g><path style="opacity:1" fill="#b5a365" d="M 288.5,31.5 C 289.293,33.918 290.626,35.918 292.5,37.5C 292.5,38.5 292.5,39.5 292.5,40.5C 291.5,40.5 290.5,40.5 289.5,40.5C 289.296,37.4824 288.963,34.4824 288.5,31.5 Z"/></g>
<g><path style="opacity:1" fill="#383425" d="M 205.5,37.5 C 206.665,46.866 206.332,56.1993 204.5,65.5C 204.833,56.1667 205.167,46.8333 205.5,37.5 Z"/></g>
<g><path style="opacity:1" fill="#e1e1e1" d="M 34.5,28.5 C 36.7274,32.7491 39.3941,36.9157 42.5,41C 45.9928,42.7906 49.6595,44.124 53.5,45C 49.6051,45.8768 45.9385,47.3768 42.5,49.5C 39.4229,52.4091 36.9229,55.7424 35,59.5C 31.9741,51.4891 26.1407,46.6557 17.5,45C 27.6436,44.0222 33.3102,38.5222 34.5,28.5 Z"/></g>
<g><path style="opacity:1" fill="#1e1e1e" d="M 34.5,38.5 C 37.1864,40.9464 40.1864,43.1131 43.5,45C 40.3548,46.9782 37.6881,49.4782 35.5,52.5C 33.3119,49.4782 30.6452,46.9782 27.5,45C 30.3312,43.3343 32.6645,41.1676 34.5,38.5 Z"/></g>
<g><path style="opacity:1" fill="#46402c" d="M 280.5,37.5 C 283.65,41.7108 283.983,46.0441 281.5,50.5C 281.533,46.1311 281.2,41.7978 280.5,37.5 Z"/></g>
<g><path style="opacity:1" fill="#574f35" d="M 91.5,63.5 C 90.4909,58.6002 89.3242,53.6002 88,48.5C 87.1228,56.3124 86.2894,63.9791 85.5,71.5C 85.0979,63.0643 85.7645,54.731 87.5,46.5C 90.4291,51.6562 91.7625,57.3229 91.5,63.5 Z"/></g>
<g><path style="opacity:1" fill="#a5965d" d="M 103.5,49.5 C 102.883,49.3893 102.383,49.056 102,48.5C 101.768,49.7375 101.268,50.7375 100.5,51.5C 100.286,49.8561 100.62,48.3561 101.5,47C 103.061,46.8119 103.728,47.6453 103.5,49.5 Z"/></g>
<g><path style="opacity:1" fill="#544d34" d="M 124.5,48.5 C 124.226,53.263 124.559,57.9296 125.5,62.5C 124.195,60.6028 123.529,58.2695 123.5,55.5C 123.503,52.9746 123.837,50.6413 124.5,48.5 Z"/></g>
<g><path style="opacity:1" fill="#4b442e" d="M 239.5,36.5 C 239.833,36.5 240.167,36.5 240.5,36.5C 240.5,40.1667 240.5,43.8333 240.5,47.5C 240.663,49.8568 240.497,52.1902 240,54.5C 239.617,53.944 239.117,53.6107 238.5,53.5C 238.5,52.8333 238.5,52.1667 238.5,51.5C 239.487,46.6946 239.821,41.6946 239.5,36.5 Z"/></g>
<g><path style="opacity:1" fill="#998b57" d="M 153.5,33.5 C 152.542,39.7436 152.209,46.077 152.5,52.5C 151.835,49.5185 151.502,46.3518 151.5,43C 151.515,39.4242 152.182,36.2575 153.5,33.5 Z"/></g>
<g><path style="opacity:1" fill="#ad9d61" d="M 240.5,47.5 C 241.643,50.9758 241.81,54.6425 241,58.5C 239.906,56.9221 239.072,55.2554 238.5,53.5C 239.117,53.6107 239.617,53.944 240,54.5C 240.497,52.1902 240.663,49.8568 240.5,47.5 Z"/></g>
<g><path style="opacity:1" fill="#4a4a4a" d="M 18.5,58.5 C 17.6909,56.7078 17.1909,54.7078 17,52.5C 16.502,55.4816 16.3354,58.4816 16.5,61.5C 15.3592,58.3601 15.1925,55.0267 16,51.5C 16.414,51.0426 16.914,50.7093 17.5,50.5C 18.48,53.0865 18.8134,55.7531 18.5,58.5 Z"/></g>
<g><path style="opacity:1" fill="#302c21" d="M 254.5,46.5 C 255.411,54.6675 255.411,63.0008 254.5,71.5C 253.589,63.3325 253.589,54.9992 254.5,46.5 Z"/></g>
<g><path style="opacity:1" fill="#767676" d="M 10.5,65.5 C 9.67871,62.3586 9.17871,59.0252 9,55.5C 8.76791,56.7375 8.26791,57.7375 7.5,58.5C 7.12807,55.9783 7.96141,53.9783 10,52.5C 10.499,56.8206 10.6657,61.1539 10.5,65.5 Z"/></g>
<g><path style="opacity:1" fill="#6e6e6e" d="M 62.5,55.5 C 61.8333,58.8333 61.1667,62.1667 60.5,65.5C 60.3342,60.8215 60.5008,56.1548 61,51.5C 62.1882,52.5634 62.6882,53.8967 62.5,55.5 Z"/></g>
<g><path style="opacity:1" fill="#a7975e" d="M 230.5,52.5 C 229.527,54.9479 229.194,57.6146 229.5,60.5C 229.815,64.3714 229.482,68.0381 228.5,71.5C 228.334,64.825 228.5,58.1583 229,51.5C 230.107,50.2881 230.607,50.6214 230.5,52.5 Z"/></g>
<g><path style="opacity:1" fill="#574f35" d="M 230.5,52.5 C 231.486,57.1493 232.486,61.816 233.5,66.5C 232.707,64.082 231.374,62.082 229.5,60.5C 229.194,57.6146 229.527,54.9479 230.5,52.5 Z"/></g>
<g><path style="opacity:1" fill="#c0ad6b" d="M 301.5,56.5 C 303.579,61.1921 304.912,66.1921 305.5,71.5C 302.287,71.81 299.287,71.4767 296.5,70.5C 299.187,70.6641 301.854,70.4974 304.5,70C 302.003,65.9127 301.003,61.4127 301.5,56.5 Z"/></g>
<g><path style="opacity:1" fill="#beab6a" d="M 110.5,25.5 C 111.496,40.9911 111.83,56.6578 111.5,72.5C 108.941,72.8016 106.607,72.4682 104.5,71.5C 106.5,71.5 108.5,71.5 110.5,71.5C 110.5,56.1667 110.5,40.8333 110.5,25.5 Z"/></g>
<g><path style="opacity:1" fill="#dcdcdc" d="M 16.5,61.5 C 16.3354,58.4816 16.502,55.4816 17,52.5C 17.1909,54.7078 17.6909,56.7078 18.5,58.5C 22.0061,68.4735 29.0061,72.3068 39.5,70C 50.0506,67.7794 54.884,61.2794 54,50.5C 56.4496,65.0818 50.1163,73.0818 35,74.5C 26.1842,73.6954 20.0175,69.362 16.5,61.5 Z"/></g>
<g><path style="opacity:1" fill="#dfdfdf" d="M 48.5,57.5 C 45.8244,65.0087 40.4911,68.1754 32.5,67C 29.8936,66.2082 27.8936,64.7082 26.5,62.5C 26.5,61.8333 26.8333,61.5 27.5,61.5C 33.1883,65.5632 38.855,65.3965 44.5,61C 45.8228,60.1841 46.4894,59.0174 46.5,57.5C 47.3957,56.4937 48.0623,56.4937 48.5,57.5 Z"/></g>
<g><path style="opacity:1" fill="#ababab" d="M 27.5,61.5 C 26.8333,61.5 26.5,61.8333 26.5,62.5C 23.2098,60.3614 22.0431,57.3614 23,53.5C 23.7384,56.6485 25.2384,59.3152 27.5,61.5 Z"/></g>
<g><path style="opacity:1" fill="#5c5c5c" d="M 48.5,57.5 C 48.0623,56.4937 47.3957,56.4937 46.5,57.5C 46.7713,55.6883 47.438,54.0217 48.5,52.5C 49.7879,54.2985 49.7879,55.9652 48.5,57.5 Z"/></g>
<g><path style="opacity:1" fill="#c2c2c2" d="M 10.5,65.5 C 12.0104,72.6873 15.6771,78.5206 21.5,83C 17.6341,82.1795 14.4675,80.0128 12,76.5C 7.97698,71.2272 6.47698,65.2272 7.5,58.5C 8.26791,57.7375 8.76791,56.7375 9,55.5C 9.17871,59.0252 9.67871,62.3586 10.5,65.5 Z"/></g>
<g><path style="opacity:1" fill="#cacaca" d="M 45.5,79.5 C 43.3926,78.5318 41.0593,78.1984 38.5,78.5C 46.4177,77.4431 52.5844,73.4431 57,66.5C 55.5709,72.7735 51.7376,77.1068 45.5,79.5 Z"/></g>
<g><path style="opacity:1" fill="#e8e8e8" d="M 38.5,78.5 C 41.0593,78.1984 43.3926,78.5318 45.5,79.5C 32.9333,84.4593 22.7666,81.4593 15,70.5C 14.3333,69.5 14.3333,68.5 15,67.5C 20.462,76.1468 28.2954,79.8135 38.5,78.5 Z"/></g>
<g><path style="opacity:1" fill="#c7c7c7" d="M 62.5,55.5 C 65.826,66.354 62.826,75.1874 53.5,82C 52.2411,82.9819 50.9078,83.3152 49.5,83C 55.316,78.5382 58.9827,72.7049 60.5,65.5C 61.1667,62.1667 61.8333,58.8333 62.5,55.5 Z"/></g>
</svg>
